<svg xmlns:xlink="http://www.w3.org/1999/xlink" xmlns="http://www.w3.org/2000/svg" class="icon icon--logo" viewBox="0 0 141.73 20" width="198"  height="28" ><defs><symbol viewBox="0 0 141.73 20" id="icon__jacquie"><path d="M101.37.24H98.88V1.41a3.44,3.44,0,0,1,0,.43v9.73c0,3-2.48,4.06-6.21,4.06s-6.22-1.06-6.22-4.06V1.83c0-.13,0-.25,0-.36V.24H84V1.41c0,.12,0,.26,0,.43V12.08c0,4.41,4.7,5.75,8.68,5.75s8.7-1.34,8.66-5.75V1.83a3.53,3.53,0,0,1,0-.36Z" fill="#878386"></path><path d="M110.43.24H108V1.38a3.86,3.86,0,0,1,0,.45V16a3.72,3.72,0,0,1,0,.45v1.13h2.46Z" fill="#878386"></path><path d="M140.36,15.37H127.49V9.8h0v0h10.13V7.59H127.49V2.45h12.33a2.39,2.39,0,0,1,.35,0h1.12V.24H124.87V1.4c0,.12,0,.26,0,.43V16c0,.17,0,.31,0,.43v1.14h16.87v-2.2Z" fill="#878386"></path><path d="M10,.24V1.67c0,.05,0,.11,0,.17V12.08c0,2.75-1,3.55-4,3.55a7.68,7.68,0,0,1-3.72-.8L.8,14.15l-.8,2L1.84,17c.26.09.56.2.89.29A9.12,9.12,0,0,0,6,17.83c3.67,0,6.4-1.07,6.4-5v-11c0-.08,0-.14,0-.21V.24Z" fill="#878386"></path><path d="M31.49,15.76a2.78,2.78,0,0,1,.22.63l.56,1.19h2.56L26.68.24H23.32L15.74,17.58H18l.46-1A2.52,2.52,0,0,1,18.7,16l1.53-3.51.05,0,0-.06h9.57ZM21.2,10.24,24.93,2l4,8.28Z" fill="#878386"></path><path d="M55.64,14.6l-1.56-2.05-1.72,1.19a9.37,9.37,0,0,1-5.64,1.64c-4.09,0-6.89-2.76-6.89-6.42s2.72-6.74,7.25-6.74A10.46,10.46,0,0,1,52.2,3.69l1.54.82,1.14-2.37-1.6-.85C53,1.16,52.55,1,52.09.83A13.67,13.67,0,0,0,47,0c-5.35,0-9.77,3.31-9.77,9s4.26,8.88,9.61,8.88a13.73,13.73,0,0,0,7.58-2.38Z" fill="#878386"></path><path d="M74.84,19.06l1.05.94,1.94-1.71-1.3-1.15c-.3-.23-.7-.58-1.31-1.08A8.45,8.45,0,0,0,79,8.91C79,4,75.18,0,69.09,0s-9.95,4-9.95,8.91,3.86,8.92,9.95,8.92a11,11,0,0,0,3.71-.59C73.93,18.22,74.53,18.73,74.84,19.06Zm-5.74-3.44c-4.5,0-7.35-3-7.35-6.76s2.85-6.65,7.35-6.65,7.35,2.95,7.35,6.65a6.34,6.34,0,0,1-2.62,5.25,7.05,7.05,0,0,1-2.92,1.3h0A8.3,8.3,0,0,1,69.09,15.62Z" fill="#878386"></path><rect x="116.14" y="7.4" width="2.6" height="2.61" fill="#878386"></rect></symbol></defs><use xlink:href="#icon__jacquie"></use></svg>